<svg xmlns="http://www.w3.org/2000/svg" viewBox="0 0 168.93 28.06"><defs><style>.cls-1{fill:#ff7640;stroke:#ff7640;stroke-miterlimit:10;stroke-width:0.03px;}</style></defs><title>Recurso 7</title><g id="Capa_2" data-name="Capa 2"><g id="Capa_1-2" data-name="Capa 1"><path d="M47.34,17,50,16.14a4.13,4.13,0,0,0,3.45,1.93c1.4,0,2.3-.72,2.3-1.67,0-1.11-1-1.67-2.79-2.26a22.87,22.87,0,0,1-2.88-1,3.56,3.56,0,0,1-2.15-3.31c0-2.39,2.22-4,5.36-4A5.79,5.79,0,0,1,58.77,9l-2.54.8a3.66,3.66,0,0,0-3-1.57c-1.37,0-2.22.6-2.22,1.54a1.4,1.4,0,0,0,.09.51c.12.33.56.61.81.8a7.44,7.44,0,0,0,1.33.55c.88.31,1.44.43,1.65.49a8.44,8.44,0,0,1,2.7,1.35,3.38,3.38,0,0,1,1.25,2.76c0,2.68-2.35,4.23-5.49,4.23A6.36,6.36,0,0,1,47.34,17Z"/><path d="M59.45,17.38c0-1.89,1.55-3.17,4.49-3.58,1.21-.19,1.92-.3,2.11-.35V12.9c0-.85-.69-1.24-1.67-1.24a4,4,0,0,0-2.94,1.28l-1.7-1.39a5.86,5.86,0,0,1,4.61-2c3.33,0,4.6,1.58,4.6,4.35v6.3H66.13V19.12a3.14,3.14,0,0,1-2.82,1.38C60.94,20.5,59.45,19.24,59.45,17.38Zm4.3.85A2.2,2.2,0,0,0,66.05,16v-.69a15.43,15.43,0,0,1-1.67.33c-1.32.19-2,.71-2,1.54C62.39,17.75,62.94,18.23,63.75,18.23Z"/><path d="M70.53,9.85h2.78v1h0a3.09,3.09,0,0,1,2.77-1.32q3.61,0,3.61,4v6.63H76.82v-6.3c0-1.47-.42-2-1.37-2-1.22,0-2,1-2,2.45v5.86h-2.9Z"/><path d="M80.88,15c0-3.4,2.14-5.48,5.15-5.48a4.34,4.34,0,0,1,4.3,3.29l-2.46.63a2,2,0,0,0-1.79-1.58c-1.45,0-2.22,1.33-2.22,3.14,0,2.05.93,3.14,2.22,3.14a2.11,2.11,0,0,0,2-1.7l2.46.62A4.73,4.73,0,0,1,86,20.5C83,20.5,80.88,18.35,80.88,15Z"/><path d="M92.87,19.22A5.93,5.93,0,0,1,91.33,15a6.23,6.23,0,0,1,1.17-3.76,5.42,5.42,0,0,1,7.92,0A6.28,6.28,0,0,1,101.57,15a6.27,6.27,0,0,1-.59,2.81,4.59,4.59,0,0,1-.9,1.33,5,5,0,0,1-3.63,1.34A5.05,5.05,0,0,1,92.87,19.22Zm3.58-1.06a1.9,1.9,0,0,0,1.36-.61,3.53,3.53,0,0,0,.8-2.53,3.47,3.47,0,0,0-.78-2.54,1.93,1.93,0,0,0-1.38-.6c-1.09,0-2.14.86-2.14,3.14S95.36,18.16,96.45,18.16Z"/><path d="M102.32,15c0-3.4,2.15-5.48,5.16-5.48a4.32,4.32,0,0,1,4.29,3.29l-2.45.63a2,2,0,0,0-1.79-1.58c-1.46,0-2.22,1.33-2.22,3.14,0,2.05.93,3.14,2.22,3.14a2.11,2.11,0,0,0,2-1.7l2.46.62a4.73,4.73,0,0,1-4.55,3.42C104.43,20.5,102.32,18.35,102.32,15Z"/><path d="M113.18,5.69h2.88v4.83h.06a3.36,3.36,0,0,1,2.49-1,3.93,3.93,0,0,1,2.52.84,4,4,0,0,1,1.21,3.18v6.63h-2.91V13.86c0-1.32-.44-2-1.35-2a2.28,2.28,0,0,0-2,2.51v5.8h-2.88Z"/><path d="M125.06,19.22a5.88,5.88,0,0,1-1.54-4.2,6.16,6.16,0,0,1,1.17-3.76,5.41,5.41,0,0,1,7.91,0A6.22,6.22,0,0,1,133.76,15a6.27,6.27,0,0,1-.59,2.81,4.79,4.79,0,0,1-.9,1.33,5.62,5.62,0,0,1-7.21.06Zm3.58-1.06a1.91,1.91,0,0,0,1.36-.61,3.53,3.53,0,0,0,.79-2.53,3.48,3.48,0,0,0-.77-2.54,2,2,0,0,0-1.38-.6c-1.09,0-2.14.86-2.14,3.14S127.55,18.16,128.64,18.16Z"/><path d="M139.3,20.19V7.51h1.24V19.26h7v.93Z"/><path d="M153.43,14.94a21.46,21.46,0,0,0,2.93-.56v-.52c0-1.27-1.05-2.18-2.9-2.18a4.58,4.58,0,0,0-3.29,1.44l-.78-.56a5.54,5.54,0,0,1,4.06-1.74c2.87,0,4.1,1.34,4.1,3.43v5.94h-1.17V18.55a4,4,0,0,1-3.76,2c-2.24,0-3.58-1-3.58-2.49C149,16.37,150.38,15.35,153.43,14.94Zm-.65,4.68c2,0,3.58-1.24,3.58-3V15.23a27.37,27.37,0,0,1-3,.51c-2.21.33-3.16,1-3.16,2.21C150.25,18.86,151.2,19.62,152.78,19.62Z"/><path d="M160.11,20.19V7h1.19v6a3.54,3.54,0,0,1,3.33-2.16c2.55,0,4.3,1.83,4.3,4.82,0,3.21-2,4.87-4.3,4.87a3.59,3.59,0,0,1-3.33-2.11v1.79Zm4.35-.57c1.92,0,3.27-1.52,3.27-4s-1.32-3.94-3.26-3.94c-1.74,0-3.21,1.52-3.21,3.94S162.67,19.62,164.46,19.62Z"/><path class="cls-1" d="M20.09,17H19a.37.37,0,0,1-.41-.36V10.77l-4.15,4.1a.35.35,0,0,1-.51,0l-.77-.77a.4.4,0,0,1,0-.56l4.1-4.1H11.43A.4.4,0,0,1,11.07,9V8a.39.39,0,0,1,.36-.4h5.84l-4.1-4.1a.4.4,0,0,1,0-.56l.77-.77a.33.33,0,0,1,.51,0L18.6,6.27V.43A.37.37,0,0,1,19,0h1.08a.4.4,0,0,1,.4.41V6.27l4.1-4.15a.39.39,0,0,1,.56,0l.77.77a.39.39,0,0,1,0,.56l-4.15,4.1h5.84A.43.43,0,0,1,28,8V9a.44.44,0,0,1-.41.41H21.77l4.15,4.1a.39.39,0,0,1,0,.56l-.77.77a.4.4,0,0,1-.56,0l-4.1-4.1v5.84A.39.39,0,0,1,20.09,17Z"/><path class="cls-1" d="M19,0h1.08a.41.41,0,0,1,.41.42V6.25l4.09-4.14A.39.39,0,0,1,24.87,2h0a.44.44,0,0,1,.29.11l.77.77a.44.44,0,0,1,.11.29.39.39,0,0,1-.11.28L21.79,7.54h5.82A.45.45,0,0,1,28,8V9a.44.44,0,0,1-.42.41H21.79l4.13,4.09a.41.41,0,0,1,0,.57l-.77.77a.45.45,0,0,1-.29.12h0a.4.4,0,0,1-.28-.12L20.5,10.78v5.83a.4.4,0,0,1-.41.36H19a.37.37,0,0,1-.41-.36V10.78l-4.14,4.09a.37.37,0,0,1-.26.12.34.34,0,0,1-.26-.12l-.77-.77a.42.42,0,0,1,0-.57l4.09-4.09H11.43A.4.4,0,0,1,11.07,9V8a.4.4,0,0,1,.36-.41h5.83L13.17,3.45a.4.4,0,0,1-.12-.28.45.45,0,0,1,.12-.29l.77-.77A.36.36,0,0,1,14.2,2a.4.4,0,0,1,.26.11L18.6,6.25V.43A.38.38,0,0,1,19,0Zm1.48,6.27V.43a.41.41,0,0,0-.4-.41H19a.38.38,0,0,0-.4.41V6.28L14.45,2.12A.36.36,0,0,0,14.2,2a.4.4,0,0,0-.26.11l-.76.77a.36.36,0,0,0-.12.28.39.39,0,0,0,.12.28l4.1,4.1H11.43a.39.39,0,0,0-.35.4V9a.39.39,0,0,0,.35.4h5.84l-4.09,4.1a.4.4,0,0,0,0,.56l.76.76a.37.37,0,0,0,.26.12.33.33,0,0,0,.25-.12l4.16-4.1v5.85A.36.36,0,0,0,19,17h1.08a.39.39,0,0,0,.4-.35V10.76l4.1,4.1a.39.39,0,0,0,.28.12h0a.36.36,0,0,0,.28-.12l.77-.76a.4.4,0,0,0,0-.56L21.76,9.43h5.85A.44.44,0,0,0,28,9V8a.44.44,0,0,0-.41-.4H21.77l4.15-4.09A.43.43,0,0,0,26,3.17a.39.39,0,0,0-.11-.28l-.77-.77A.39.39,0,0,0,24.87,2h0a.43.43,0,0,0-.28.11Z"/><path d="M38.55,7.54H29.64c.11,0,.15.13.15.19V9.24c0,.07,0,.2-.16.2h7.54A17.77,17.77,0,0,1,19.91,26.15H19.2A17.76,17.76,0,0,1,1.93,9.44H9.41c-.18,0-.18-.14-.18-.2V7.71a.16.16,0,0,1,.18-.17H.54A.54.54,0,0,0,0,8.08,20.14,20.14,0,0,0,4.46,20.94a19.55,19.55,0,0,0,14.72,7.12h.76A19.5,19.5,0,0,0,34,21.62,20.12,20.12,0,0,0,39.1,8.08.55.55,0,0,0,38.55,7.54Z"/></g></g></svg>